<?xml version="1.0" encoding="UTF-8" standalone="no"?><svg xmlns="http://www.w3.org/2000/svg" xmlns:xlink="http://www.w3.org/1999/xlink" contentStyleType="text/css" height="300px" preserveAspectRatio="none" style="width:449px;height:300px;background:#FFFFFF;" version="1.1" viewBox="0 0 449 300" width="449px" zoomAndPan="magnify"><defs/><g><!--MD5=[7231450f633845da6e92cf0373678125]
class Chantier--><g id="elem_Chantier"><rect codeLine="1" fill="#F1F1F1" height="113.1875" id="Chantier" rx="2.5" ry="2.5" style="stroke:#181818;stroke-width:0.5;" width="173" x="269" y="7"/><ellipse cx="320.25" cy="23" fill="#ADD1B2" rx="11" ry="11" style="stroke:#181818;stroke-width:1.0;"/><path d="M322.5938,18.6719 C321.6563,18.2344 321.0625,18.0938 320.1875,18.0938 C317.5625,18.0938 315.5625,20.1719 315.5625,22.8906 L315.5625,24.0156 C315.5625,26.5938 317.6719,28.4844 320.5625,28.4844 C321.7813,28.4844 322.9375,28.1875 323.6875,27.6406 C324.2656,27.2344 324.5938,26.7813 324.5938,26.3906 C324.5938,25.9375 324.2031,25.5469 323.7344,25.5469 C323.5156,25.5469 323.3125,25.625 323.125,25.8125 C322.6719,26.2969 322.6719,26.2969 322.4844,26.3906 C322.0625,26.6563 321.375,26.7813 320.6094,26.7813 C318.5625,26.7813 317.2656,25.6875 317.2656,23.9844 L317.2656,22.8906 C317.2656,21.1094 318.5156,19.7969 320.25,19.7969 C320.8281,19.7969 321.4375,19.9531 321.9063,20.2031 C322.3906,20.4844 322.5625,20.7031 322.6563,21.1094 C322.7188,21.5156 322.75,21.6406 322.8906,21.7656 C323.0313,21.9063 323.2656,22.0156 323.4844,22.0156 C323.75,22.0156 324.0156,21.875 324.1875,21.6563 C324.2969,21.5 324.3281,21.3125 324.3281,20.8906 L324.3281,19.4688 C324.3281,19.0313 324.3125,18.9063 324.2188,18.75 C324.0625,18.4844 323.7813,18.3438 323.4844,18.3438 C323.1875,18.3438 322.9844,18.4375 322.7656,18.75 L322.5938,18.6719 Z " fill="#000000"/><text fill="#000000" font-family="sans-serif" font-size="14" lengthAdjust="spacing" textLength="62" x="340.75" y="27.8467">Chantier</text><line style="stroke:#181818;stroke-width:0.5;" x1="270" x2="441" y1="39" y2="39"/><text fill="#000000" font-family="sans-serif" font-size="14" lengthAdjust="spacing" textLength="116" x="275" y="55.9951">dateDebut:date</text><text fill="#000000" font-family="sans-serif" font-size="14" lengthAdjust="spacing" textLength="92" x="275" y="72.292">dateFin:date</text><text fill="#000000" font-family="sans-serif" font-size="14" lengthAdjust="spacing" textLength="104" x="275" y="88.5889">adresse:String</text><line style="stroke:#181818;stroke-width:0.5;" x1="270" x2="441" y1="95.8906" y2="95.8906"/><text fill="#000000" font-family="sans-serif" font-size="14" lengthAdjust="spacing" textLength="161" x="275" y="112.8857">void modifierDateFin()</text></g><!--MD5=[e8de2477f0619782a88ba6174d99456f]
class Artisan--><g id="elem_Artisan"><rect codeLine="8" fill="#F1F1F1" height="96.8906" id="Artisan" rx="2.5" ry="2.5" style="stroke:#181818;stroke-width:0.5;" width="187" x="7" y="15"/><ellipse cx="70.75" cy="31" fill="#ADD1B2" rx="11" ry="11" style="stroke:#181818;stroke-width:1.0;"/><path d="M73.0938,26.6719 C72.1563,26.2344 71.5625,26.0938 70.6875,26.0938 C68.0625,26.0938 66.0625,28.1719 66.0625,30.8906 L66.0625,32.0156 C66.0625,34.5938 68.1719,36.4844 71.0625,36.4844 C72.2813,36.4844 73.4375,36.1875 74.1875,35.6406 C74.7656,35.2344 75.0938,34.7813 75.0938,34.3906 C75.0938,33.9375 74.7031,33.5469 74.2344,33.5469 C74.0156,33.5469 73.8125,33.625 73.625,33.8125 C73.1719,34.2969 73.1719,34.2969 72.9844,34.3906 C72.5625,34.6563 71.875,34.7813 71.1094,34.7813 C69.0625,34.7813 67.7656,33.6875 67.7656,31.9844 L67.7656,30.8906 C67.7656,29.1094 69.0156,27.7969 70.75,27.7969 C71.3281,27.7969 71.9375,27.9531 72.4063,28.2031 C72.8906,28.4844 73.0625,28.7031 73.1563,29.1094 C73.2188,29.5156 73.25,29.6406 73.3906,29.7656 C73.5313,29.9063 73.7656,30.0156 73.9844,30.0156 C74.25,30.0156 74.5156,29.875 74.6875,29.6563 C74.7969,29.5 74.8281,29.3125 74.8281,28.8906 L74.8281,27.4688 C74.8281,27.0313 74.8125,26.9063 74.7188,26.75 C74.5625,26.4844 74.2813,26.3438 73.9844,26.3438 C73.6875,26.3438 73.4844,26.4375 73.2656,26.75 L73.0938,26.6719 Z " fill="#000000"/><text fill="#000000" font-family="sans-serif" font-size="14" lengthAdjust="spacing" textLength="51" x="91.25" y="35.8467">Artisan</text><line style="stroke:#181818;stroke-width:0.5;" x1="8" x2="193" y1="47" y2="47"/><text fill="#000000" font-family="sans-serif" font-size="14" lengthAdjust="spacing" textLength="85" x="13" y="63.9951">salaire:float</text><text fill="#000000" font-family="sans-serif" font-size="14" lengthAdjust="spacing" textLength="142" x="13" y="80.292">coordonnees:String</text><line style="stroke:#181818;stroke-width:0.5;" x1="8" x2="193" y1="87.5938" y2="87.5938"/><text fill="#000000" font-family="sans-serif" font-size="14" lengthAdjust="spacing" textLength="175" x="13" y="104.5889">void affecterAChantier()</text></g><!--MD5=[04d440ec53fb2cc018de6d91273d6939]
class Affecter--><g id="elem_Affecter"><rect codeLine="14" fill="#F1F1F1" height="113.1875" id="Affecter" rx="2.5" ry="2.5" style="stroke:#181818;stroke-width:0.5;" width="156" x="153.5" y="180"/><ellipse cx="196.85" cy="196" fill="#ADD1B2" rx="11" ry="11" style="stroke:#181818;stroke-width:1.0;"/><path d="M199.1938,191.6719 C198.2563,191.2344 197.6625,191.0938 196.7875,191.0938 C194.1625,191.0938 192.1625,193.1719 192.1625,195.8906 L192.1625,197.0156 C192.1625,199.5938 194.2719,201.4844 197.1625,201.4844 C198.3813,201.4844 199.5375,201.1875 200.2875,200.6406 C200.8656,200.2344 201.1938,199.7813 201.1938,199.3906 C201.1938,198.9375 200.8031,198.5469 200.3344,198.5469 C200.1156,198.5469 199.9125,198.625 199.725,198.8125 C199.2719,199.2969 199.2719,199.2969 199.0844,199.3906 C198.6625,199.6563 197.975,199.7813 197.2094,199.7813 C195.1625,199.7813 193.8656,198.6875 193.8656,196.9844 L193.8656,195.8906 C193.8656,194.1094 195.1156,192.7969 196.85,192.7969 C197.4281,192.7969 198.0375,192.9531 198.5063,193.2031 C198.9906,193.4844 199.1625,193.7031 199.2563,194.1094 C199.3188,194.5156 199.35,194.6406 199.4906,194.7656 C199.6313,194.9063 199.8656,195.0156 200.0844,195.0156 C200.35,195.0156 200.6156,194.875 200.7875,194.6563 C200.8969,194.5 200.9281,194.3125 200.9281,193.8906 L200.9281,192.4688 C200.9281,192.0313 200.9125,191.9063 200.8188,191.75 C200.6625,191.4844 200.3813,191.3438 200.0844,191.3438 C199.7875,191.3438 199.5844,191.4375 199.3656,191.75 L199.1938,191.6719 Z " fill="#000000"/><text fill="#000000" font-family="sans-serif" font-size="14" lengthAdjust="spacing" textLength="61" x="217.15" y="200.8467">Affecter</text><line style="stroke:#181818;stroke-width:0.5;" x1="154.5" x2="308.5" y1="212" y2="212"/><text fill="#000000" font-family="sans-serif" font-size="14" lengthAdjust="spacing" textLength="100" x="159.5" y="228.9951">nbHeure:float</text><text fill="#000000" font-family="sans-serif" font-size="14" lengthAdjust="spacing" textLength="116" x="159.5" y="245.292">dateDebut:date</text><text fill="#000000" font-family="sans-serif" font-size="14" lengthAdjust="spacing" textLength="92" x="159.5" y="261.5889">dateFin:date</text><line style="stroke:#181818;stroke-width:0.5;" x1="154.5" x2="308.5" y1="268.8906" y2="268.8906"/><text fill="#000000" font-family="sans-serif" font-size="14" lengthAdjust="spacing" textLength="144" x="159.5" y="285.8857">int getPayeArtisan()</text></g><ellipse cx="231.5" cy="63.5" fill="#000000" rx="2" ry="2" style="stroke:none;stroke-width:1.0;"/><!--MD5=[55192d5159778ec7a81288d6bf07eefb]
link Artisan to apoint93114--><g id="link_Artisan_apoint93114"><path d="M194.145,63.5 C205.915,63.5 217.686,63.5 229.457,63.5 " fill="none" id="Artisan-apoint93114" style="stroke:#181818;stroke-width:1.0;"/><text fill="#000000" font-family="sans-serif" font-size="13" lengthAdjust="spacing" textLength="23" x="198.5232" y="58.5545">1..*</text></g><!--MD5=[cc06bd7aaab4d9f6511250517745d8f6]
link apoint93114 to Chantier--><g id="link_apoint93114_Chantier"><path d="M233.922,63.5 C245.478,63.5 257.034,63.5 268.591,63.5 " fill="none" id="apoint93114-Chantier" style="stroke:#181818;stroke-width:1.0;"/><text fill="#000000" font-family="sans-serif" font-size="13" lengthAdjust="spacing" textLength="23" x="241.4986" y="58.4637">1..*</text></g><!--MD5=[e56a8e3726b405432225dd54d599a29f]
link apoint93114 to Affecter--><g id="link_apoint93114_Affecter"><path d="M231.5,65.592 C231.5,74.324 231.5,133.672 231.5,179.797 " fill="none" id="apoint93114-Affecter" style="stroke:#181818;stroke-width:1.0;stroke-dasharray:7.0,7.0;"/></g><!--MD5=[4f3a806b8eba1b0d0a57a495383c4196]
@startuml
class Chantier {
    dateDebut:date
    dateFin:date
    adresse:String
    void modifierDateFin()
}

class Artisan {
    salaire:float
    coordonnees:String
    void affecterAChantier()
}

class Affecter {
    nbHeure:float
    dateDebut:date
    dateFin:date
    int getPayeArtisan()
}

Artisan "1..*" - "1..*" Chantier
(Artisan,Chantier) .. Affecter
@enduml

PlantUML version 1.2022.3beta2(Unknown compile time)
(GPL source distribution)
Java Runtime: Java(TM) SE Runtime Environment
JVM: Java HotSpot(TM) 64-Bit Server VM
Default Encoding: UTF-8
Language: en
Country: US
--></g></svg>