<?xml version="1.0" encoding="UTF-8" standalone="no"?><svg xmlns="http://www.w3.org/2000/svg" xmlns:xlink="http://www.w3.org/1999/xlink" contentStyleType="text/css" height="439px" preserveAspectRatio="none" style="width:837px;height:439px;background:#FFFFFF;" version="1.1" viewBox="0 0 837 439" width="837px" zoomAndPan="magnify"><defs/><g><g id="elem_a"><ellipse cx="266.0721" cy="114.0424" fill="#F1F1F1" rx="132.5721" ry="28.9144" style="stroke:#181818;stroke-width:0.5;"/><text fill="#000000" font-family="sans-serif" font-size="14" lengthAdjust="spacing" textLength="234" x="149.0721" y="116.8891">Affecter un Artisan à un chantier</text></g><g id="elem_a1"><ellipse cx="577.0569" cy="114.1394" fill="#F1F1F1" rx="143.0569" ry="31.0114" style="stroke:#181818;stroke-width:0.5;"/><text fill="#000000" font-family="sans-serif" font-size="14" lengthAdjust="spacing" textLength="256" x="449.0569" y="116.9861">Changer la date de fin d'un chantier</text></g><g id="elem_b"><ellipse cx="266.2105" cy="255.3701" fill="#F1F1F1" rx="121.7105" ry="26.7421" style="stroke:#181818;stroke-width:0.5;"/><text fill="#000000" font-family="sans-serif" font-size="14" lengthAdjust="spacing" textLength="211" x="160.7105" y="258.2168">Obtenir le salaire d'un ouvrier</text></g><g id="elem_b1"><ellipse cx="627.1689" cy="255.3618" fill="#F1F1F1" rx="204.1689" ry="43.2338" style="stroke:#181818;stroke-width:0.5;"/><text fill="#000000" font-family="sans-serif" font-size="14" lengthAdjust="spacing" textLength="382" x="436.1689" y="258.2085">Obtenir les informations sur un ouvrier ou un chantier</text></g><g id="elem_c"><ellipse cx="266.0909" cy="396.2462" fill="#F1F1F1" rx="123.5909" ry="27.1182" style="stroke:#181818;stroke-width:0.5;"/><text fill="#000000" font-family="sans-serif" font-size="14" lengthAdjust="spacing" textLength="215" x="158.5909" y="399.0929">Obtenir les chantiers en cours</text></g><!--MD5=[f651f3e16bb77f0b4fb138dbb3066638]
entity Responsable--><g id="elem_Responsable"><ellipse cx="52" cy="84.628" fill="#F1F1F1" rx="8" ry="8" style="stroke:#181818;stroke-width:0.5;"/><path d="M52,92.628 L52,119.628 M39,100.628 L65,100.628 M52,119.628 L39,134.628 M52,119.628 L65,134.628 " fill="none" style="stroke:#181818;stroke-width:0.5;"/><text fill="#000000" font-family="sans-serif" font-size="14" lengthAdjust="spacing" textLength="92" x="6" y="149.1231">Responsable</text></g><!--MD5=[4206b647878100e6066f92523e03a5d6]
entity Entreprise--><g id="elem_Entreprise"><ellipse cx="71" cy="225.628" fill="#F1F1F1" rx="8" ry="8" style="stroke:#181818;stroke-width:0.5;"/><path d="M71,233.628 L71,260.628 M58,241.628 L84,241.628 M71,260.628 L58,275.628 M71,260.628 L84,275.628 " fill="none" style="stroke:#181818;stroke-width:0.5;"/><text fill="#000000" font-family="sans-serif" font-size="14" lengthAdjust="spacing" textLength="76" x="33" y="290.1231">Entreprise</text></g><!--MD5=[b73ac041af60e0fc6a1a36dff1cdfedb]
entity Salarie--><g id="elem_Salarie"><ellipse cx="83" cy="366.628" fill="#F1F1F1" rx="8" ry="8" style="stroke:#181818;stroke-width:0.5;"/><path d="M83,374.628 L83,401.628 M70,382.628 L96,382.628 M83,401.628 L70,416.628 M83,401.628 L96,416.628 " fill="none" style="stroke:#181818;stroke-width:0.5;"/><text fill="#000000" font-family="sans-serif" font-size="14" lengthAdjust="spacing" textLength="48" x="59" y="431.1231">Salarie</text></g><!--MD5=[a3deb68e4aebbeb113ddd128f6b25b58]
link a to b--><!--MD5=[89c5e88c1b3a23b788935d6fc97d11bf]
link b to c--><!--MD5=[d1e61a4c438060efa740ddf150c0663d]
link Responsable to a1--><g id="link_Responsable_a1"><path d="M87.0087,75.784 C100.2739,63.921 116.348,52.344 133.5,46.128 C244.231,6 282.667,24.812 398.5,46.128 C438.134,53.422 480.363,69.114 513.792,83.588 " fill="none" id="Responsable-to-a1" style="stroke:#181818;stroke-width:1.0;"/><polygon fill="#181818" points="518.659,85.713,512.0121,78.4453,514.0769,83.7119,508.8103,85.7767,518.659,85.713" style="stroke:#181818;stroke-width:1.0;"/></g><!--MD5=[4728979e27f5d7e612db6af61b600a12]
link Responsable to a--><g id="link_Responsable_a"><path d="M98.3945,114.128 C108.337,114.128 118.28,114.128 128.222,114.128 " fill="none" id="Responsable-to-a" style="stroke:#181818;stroke-width:1.0;"/><polygon fill="#181818" points="133.421,114.128,124.421,110.128,128.421,114.128,124.421,118.128,133.421,114.128" style="stroke:#181818;stroke-width:1.0;"/></g><!--MD5=[83bbf860bf7f1493e7ca3b8924caf7d7]
link Entreprise to b1--><g id="link_Entreprise_b1"><path d="M98.9781,216.794 C111.244,203.158 126.875,189.393 144.5,182.128 C274.033,128.732 437.563,174.787 537.11,214.086 " fill="none" id="Entreprise-to-b1" style="stroke:#181818;stroke-width:1.0;"/><polygon fill="#181818" points="541.802,215.952,534.9186,208.908,537.1563,214.1034,531.9608,216.3411,541.802,215.952" style="stroke:#181818;stroke-width:1.0;"/></g><!--MD5=[652f4f86cbfaa74509299fda505d6e5b]
link Entreprise to b--><g id="link_Entreprise_b"><path d="M109.086,255.128 C119.09,255.128 129.094,255.128 139.099,255.128 " fill="none" id="Entreprise-to-b" style="stroke:#181818;stroke-width:1.0;"/><polygon fill="#181818" points="144.33,255.128,135.33,251.128,139.33,255.128,135.33,259.128,144.33,255.128" style="stroke:#181818;stroke-width:1.0;"/></g><!--MD5=[1d7e127a0e4884ce174bf9c31bf80ad6]
link Salarie to c--><g id="link_Salarie_c"><path d="M107.305,396.128 C117.247,396.128 127.188,396.128 137.13,396.128 " fill="none" id="Salarie-to-c" style="stroke:#181818;stroke-width:1.0;"/><polygon fill="#181818" points="142.329,396.128,133.329,392.128,137.329,396.128,133.329,400.128,142.329,396.128" style="stroke:#181818;stroke-width:1.0;"/></g><!--MD5=[461d46ede19c2a3cf42cf58bd7b81caf]
@startuml
usecase a as "Affecter un Artisan à un chantier"
usecase a1 as "Changer la date de fin d'un chantier"
usecase b as "Obtenir le salaire d'un ouvrier"
usecase b1 as "Obtenir les informations sur un ouvrier ou un chantier"
usecase c as "Obtenir les chantiers en cours" 

actor Responsable
actor Entreprise
actor Salarie

'Pour aligner les 2 acteurs :
a -[hidden]-> b
b -[hidden]-> c

Responsable -> a1
Responsable -> a
Entreprise -> b1
Entreprise -> b
Salarie -> c
@enduml

@startuml
usecase a as "Affecter un Artisan à un chantier"
usecase a1 as "Changer la date de fin d'un chantier"
usecase b as "Obtenir le salaire d'un ouvrier"
usecase b1 as "Obtenir les informations sur un ouvrier ou un chantier"
usecase c as "Obtenir les chantiers en cours" 

actor Responsable
actor Entreprise
actor Salarie

a -[hidden]-> b
b -[hidden]-> c

Responsable -> a1
Responsable -> a
Entreprise -> b1
Entreprise -> b
Salarie -> c
@enduml

PlantUML version 1.2022.3beta2(Unknown compile time)
(GPL source distribution)
Java Runtime: Java(TM) SE Runtime Environment
JVM: Java HotSpot(TM) 64-Bit Server VM
Default Encoding: UTF-8
Language: en
Country: US
--></g></svg>